<svg version="1.1" id="Layer_1" xmlns="http://www.w3.org/2000/svg" xmlns:xlink="http://www.w3.org/1999/xlink" x="0px" y="0px"
	 width="100%" viewBox="0 0 100 144" enable-background="new 0 0 100 144" xml:space="preserve">
<path fill="#FDFDFC" opacity="1.000000" stroke="none" 
	d="
M101.000000,36.000000 
	C101.000000,72.666664 101.000000,108.833336 101.000000,145.000000 
	C67.666664,145.000000 34.333332,145.000000 1.000000,145.000000 
	C1.000000,97.000000 1.000000,49.000000 1.000000,1.000000 
	C34.333332,1.000000 67.666664,1.000000 101.000000,1.000000 
	C101.000000,12.500000 101.000000,24.000000 101.000000,36.000000 
M31.422344,136.204620 
	C33.712414,136.406631 36.012817,136.771362 38.280914,136.627350 
	C38.604515,136.606796 38.771633,134.121750 38.546577,132.262665 
	C36.690693,132.562698 34.834808,132.862747 32.370777,133.230789 
	C32.252037,133.810715 32.133293,134.390625 31.975214,135.336044 
	C31.975214,135.336044 31.957304,135.703201 31.422344,136.204620 
M9.849597,136.217117 
	C11.242383,135.840927 12.635169,135.464737 14.027961,135.088547 
	C12.915940,134.084534 11.923113,132.852921 10.637797,132.179810 
	C10.060781,131.877640 8.898644,132.692764 7.330554,133.063629 
	C6.116883,133.811737 4.903213,134.559860 3.689543,135.307968 
	C3.824620,135.657867 3.959697,136.007751 4.094774,136.357651 
	C5.804956,136.172974 7.515138,135.988297 9.849597,136.217117 
M2.040936,107.037994 
	C2.040936,113.952393 2.040936,120.866798 2.040936,127.811676 
	C3.304395,127.963707 3.946671,128.108307 4.589016,128.108612 
	C34.980667,128.123291 65.372345,128.137878 95.763893,128.082855 
	C96.959084,128.080688 98.153046,127.400620 99.750893,126.317032 
	C99.807823,120.997612 99.649765,115.664398 99.989983,110.363159 
	C100.260170,106.152985 98.657898,104.982880 94.566223,105.002930 
	C65.286003,105.146378 36.004730,105.062828 6.723932,105.122429 
	C5.206265,105.125519 3.689919,105.777328 2.040936,107.037994 
M23.873793,11.281302 
	C3.689554,25.690596 -3.041893,49.434875 6.730604,71.751617 
	C15.950390,92.806183 39.401001,104.338326 62.642410,98.844688 
	C82.756599,94.090248 100.205086,76.505692 99.653244,50.955666 
	C98.814980,12.144198 57.679050,-9.456191 23.873793,11.281302 
M15.512521,140.952026 
	C11.153946,140.952026 6.795371,140.952026 2.436796,140.952026 
	C2.469353,141.374405 2.501910,141.796799 2.534466,142.219177 
	C34.770500,142.219177 67.006538,142.219177 99.242569,142.219177 
	C99.240051,141.796768 99.237526,141.374359 99.235001,140.951950 
	C71.659103,140.951950 44.083214,140.951950 15.512521,140.952026 
M92.457458,132.046295 
	C88.328629,132.336807 84.199799,132.627319 80.070969,132.917816 
	C80.071190,133.733780 80.071411,134.549728 80.071632,135.365677 
	C84.335297,135.830444 88.592186,136.419449 92.868484,136.652695 
	C93.699936,136.698044 94.606926,135.358368 95.479073,134.657547 
	C94.724022,133.779465 93.968971,132.901382 92.457458,132.046295 
M27.416975,134.698547 
	C27.694309,134.986771 27.968428,135.278519 28.263107,135.547745 
	C28.272850,135.556656 28.491184,135.337265 28.612289,135.224289 
	C28.333527,134.934875 28.054764,134.645462 27.416975,134.698547 
z"/>
<path fill="#958E64" opacity="1.000000" stroke="none" 
	d="
M24.181446,11.087297 
	C57.679050,-9.456191 98.814980,12.144198 99.653244,50.955666 
	C100.205086,76.505692 82.756599,94.090248 62.642410,98.844688 
	C39.401001,104.338326 15.950390,92.806183 6.730604,71.751617 
	C-3.041893,49.434875 3.689554,25.690596 24.181446,11.087297 
M83.007004,83.007935 
	C83.007004,83.007935 83.035767,83.039864 83.521004,83.330460 
	C83.686852,83.240807 83.852707,83.151161 84.476562,82.847557 
	C84.692841,82.408272 84.909119,81.968987 85.679054,81.151131 
	C86.328598,80.275307 86.978142,79.399483 88.067375,78.176704 
	C88.464775,77.530510 88.862175,76.884308 89.797287,75.795341 
	C90.534584,73.855934 91.271873,71.916519 92.015480,69.544914 
	C92.015480,69.544914 92.031326,69.112961 92.713135,68.986427 
	C94.770905,67.258125 96.544067,65.572289 92.059021,64.447708 
	C92.059021,64.447708 92.031479,64.075974 92.050087,63.411850 
	C92.708748,63.006729 93.367416,62.601604 94.047035,62.716537 
	C94.510529,62.794968 94.974030,62.873398 95.437523,62.951832 
	C95.302452,62.304405 95.167389,61.656982 95.271217,60.279152 
	C95.473564,54.865463 95.675911,49.451775 95.976402,43.476433 
	C95.784042,42.964394 95.591690,42.452351 95.305550,41.218464 
	C95.142235,40.509819 94.978912,39.801178 94.750282,38.369167 
	C92.656349,34.203911 90.562416,30.038658 88.180412,25.252264 
	C87.432159,24.414762 86.683907,23.577263 85.849373,22.400509 
	C85.719841,22.199635 85.546852,22.048565 85.019020,21.324675 
	C82.418564,19.070059 79.818100,16.815445 76.865128,14.133791 
	C76.575333,13.902961 76.285538,13.672131 75.838562,13.254690 
	C75.838562,13.254690 75.463844,12.949776 74.743729,12.718287 
	C74.514923,12.612338 74.286125,12.506391 73.593781,11.985747 
	C72.394981,11.652718 71.196190,11.319688 69.958023,10.475238 
	C69.816383,10.253592 69.674736,10.031944 69.533096,9.810298 
	C69.343941,10.259280 69.154793,10.708262 68.298859,11.085646 
	C67.852242,11.102179 67.405617,11.118711 66.533676,10.919964 
	C66.533676,10.919964 66.059578,10.870070 65.763229,10.345689 
	C65.184776,10.203547 64.606316,10.061406 64.003021,9.511890 
	C64.003021,9.511890 63.944134,9.108030 63.943073,8.530106 
	C63.219170,8.409955 62.495270,8.289804 61.208485,8.246425 
	C60.832481,8.260102 60.456474,8.273779 59.981503,7.590584 
	C59.319149,7.137279 58.656796,6.683974 57.994442,6.230669 
	C57.989666,7.263040 57.984894,8.295410 57.053120,9.285510 
	C52.712112,9.316655 48.371105,9.347800 44.036518,8.652208 
	C43.676460,7.904624 43.316406,7.157039 42.956352,6.409453 
	C42.619839,7.563062 42.283321,8.716670 41.320004,10.051170 
	C40.889271,10.104956 40.458534,10.158741 39.973988,9.567621 
	C39.664387,8.890330 39.354790,8.213039 38.595249,6.551445 
	C38.279945,8.266345 38.155373,8.943882 37.347755,9.799371 
	C36.498653,10.174273 35.649555,10.549173 34.251694,10.858527 
	C33.490719,10.939864 32.729744,11.021201 31.252207,11.015264 
	C30.646143,11.328830 30.040079,11.642396 28.831066,11.894034 
	C27.527456,12.719584 26.223846,13.545135 24.437250,14.668513 
	C24.281004,14.775105 24.124758,14.881698 23.284357,15.068218 
	C20.551510,18.082098 17.818663,21.095978 15.050528,24.576767 
	C15.050528,24.576767 14.992122,25.041351 14.445541,25.099585 
	C14.278586,25.396805 14.111631,25.694027 14.000607,26.000601 
	C14.000607,26.000601 13.981607,25.947172 13.377367,26.161263 
	C13.243433,26.775957 13.109499,27.390654 12.457605,28.044073 
	C10.940722,31.607347 9.423840,35.170620 7.464121,39.050018 
	C7.337651,39.370926 7.211180,39.691830 6.791925,40.495819 
	C6.581058,40.990463 6.370191,41.485107 6.044542,42.656960 
	C6.082020,43.111740 6.119498,43.566525 5.973125,44.865906 
	C6.024268,49.563374 6.075411,54.260838 6.026120,59.521694 
	C6.222260,60.033546 6.418399,60.545403 6.672798,61.773899 
	C7.165373,63.062176 7.657948,64.350456 7.860163,65.905281 
	C7.860286,66.069160 7.860409,66.233040 7.860533,66.396919 
	C8.003263,66.191772 8.145993,65.986633 8.981503,65.828156 
	C9.746693,66.509064 10.511883,67.189964 11.108187,67.918221 
	C11.108187,67.918221 10.960176,68.012329 10.518134,68.204094 
	C10.245067,68.402863 10.072992,68.667351 9.741698,69.636055 
	C8.787317,73.713326 11.968331,71.325157 13.654346,72.141075 
	C13.848948,72.397545 13.954734,72.686523 13.492630,73.395309 
	C13.664097,74.597473 13.835564,75.799644 14.064835,77.628662 
	C14.374193,77.768074 14.683552,77.907478 15.000123,77.996292 
	C15.000123,77.996292 14.952996,78.016075 14.641544,78.688934 
	C15.401073,79.640251 16.160601,80.591568 17.175560,82.142876 
	C18.137596,82.266464 19.099630,82.390045 20.135057,83.267303 
	C21.193443,84.703758 22.251829,86.140205 23.726494,88.116280 
	C26.490160,89.720329 29.253826,91.324371 32.389397,93.101044 
	C32.389397,93.101044 32.793995,93.167351 33.232170,93.679298 
	C34.495644,94.088959 35.759117,94.498619 37.698109,95.114517 
	C38.384758,95.115593 39.071407,95.116669 39.833313,95.053986 
	C39.833313,95.053986 39.800591,95.128250 40.214920,95.781021 
	C41.473297,96.048195 42.731674,96.315376 44.437458,96.842651 
	C44.954639,96.531860 45.471825,96.221069 46.508064,95.927963 
	C46.669640,95.990105 46.831219,96.052254 47.183559,96.852684 
	C49.960117,98.396187 52.693916,99.484444 55.496284,95.920799 
	C55.670712,95.905388 55.845135,95.889984 56.166454,96.393684 
	C56.792606,96.440582 57.418758,96.487480 58.876118,96.455017 
	C62.293522,95.371323 65.710930,94.287628 69.840012,93.121483 
	C73.999092,90.648972 79.429916,89.725075 81.280457,84.075462 
	C81.280457,84.075462 81.636383,84.079628 82.374916,84.217369 
	C82.593399,83.823021 82.811890,83.428680 83.007004,83.007935 
M66.599869,8.523890 
	C66.599869,8.523890 66.475723,8.603547 66.599869,8.523890 
M35.609951,8.531167 
	C35.609951,8.531167 35.475307,8.622832 35.609951,8.531167 
z"/>
<path fill="#BDB89E" opacity="1.000000" stroke="none" 
	d="
M2.172958,106.127106 
	C3.689919,105.777328 5.206265,105.125519 6.723932,105.122429 
	C36.004730,105.062828 65.286003,105.146378 94.566223,105.002930 
	C98.657898,104.982880 100.260170,106.152985 99.989983,110.363159 
	C99.649765,115.664398 99.807823,120.997612 99.179764,126.637985 
	C98.362915,126.932907 98.117203,126.906876 97.901489,126.421738 
	C97.931496,119.725464 97.931496,113.488281 97.931496,107.232956 
	C65.796326,107.232956 34.523399,107.232956 3.128035,106.995583 
	C2.728050,106.547844 2.450504,106.337479 2.172958,106.127106 
z"/>
<path fill="#BDB89E" opacity="1.000000" stroke="none" 
	d="
M16.009920,140.951996 
	C44.083214,140.951950 71.659103,140.951950 99.235001,140.951950 
	C99.237526,141.374359 99.240051,141.796768 99.242569,142.219177 
	C67.006538,142.219177 34.770500,142.219177 2.534466,142.219177 
	C2.501910,141.796799 2.469353,141.374405 2.436796,140.952026 
	C6.795371,140.952026 11.153946,140.952026 16.009920,140.951996 
z"/>
<path fill="#958E64" opacity="1.000000" stroke="none" 
	d="
M2.106947,106.582550 
	C2.450504,106.337479 2.728050,106.547844 3.080379,107.444534 
	C3.155161,114.244446 3.155161,120.358040 3.155161,126.880836 
	C35.060688,126.880836 66.466087,126.880836 97.871490,126.880836 
	C98.117203,126.906876 98.362915,126.932907 98.978104,126.997681 
	C98.153046,127.400620 96.959084,128.080688 95.763893,128.082855 
	C65.372345,128.137878 34.980667,128.123291 4.589016,128.108612 
	C3.946671,128.108307 3.304395,127.963707 2.040936,127.811676 
	C2.040936,120.866798 2.040936,113.952393 2.106947,106.582550 
z"/>
<path fill="#B3AE90" opacity="1.000000" stroke="none" 
	d="
M92.835693,132.034805 
	C93.968971,132.901382 94.724022,133.779465 95.479073,134.657547 
	C94.606926,135.358368 93.699936,136.698044 92.868484,136.652695 
	C88.592186,136.419449 84.335297,135.830444 80.071632,135.365677 
	C80.071411,134.549728 80.071190,133.733780 80.070969,132.917816 
	C84.199799,132.627319 88.328629,132.336807 92.835693,132.034805 
z"/>
<path fill="#B3AE90" opacity="1.000000" stroke="none" 
	d="
M8.002019,133.000900 
	C8.898644,132.692764 10.060781,131.877640 10.637797,132.179810 
	C11.923113,132.852921 12.915940,134.084534 14.027958,135.088531 
	C12.635169,135.464737 11.242383,135.840927 9.434405,135.722717 
	C8.680149,134.485840 8.341084,133.743378 8.002019,133.000900 
z"/>
<path fill="#A6A17D" opacity="1.000000" stroke="none" 
	d="
M39.011173,132.777298 
	C38.771633,134.121750 38.604515,136.606796 38.280914,136.627350 
	C36.012817,136.771362 33.712414,136.406631 31.904123,135.976700 
	C32.485096,135.645386 32.584290,135.542007 32.683487,135.438614 
	C32.460506,135.282593 32.237530,135.126572 32.014553,134.970551 
	C32.133293,134.390625 32.252037,133.810715 32.815544,133.476288 
	C35.747704,136.880219 37.529793,135.744232 39.011173,132.777298 
z"/>
<path fill="#BDB89E" opacity="1.000000" stroke="none" 
	d="
M38.778877,132.519989 
	C37.529793,135.744232 35.747704,136.880219 33.119617,133.442291 
	C34.834808,132.862747 36.690693,132.562698 38.778877,132.519989 
z"/>
<path fill="#E5E3D9" opacity="1.000000" stroke="none" 
	d="
M7.666286,133.032257 
	C8.341084,133.743378 8.680149,134.485840 9.122267,135.515961 
	C7.515138,135.988297 5.804956,136.172974 4.094774,136.357651 
	C3.959697,136.007751 3.824620,135.657867 3.689543,135.307968 
	C4.903213,134.559860 6.116883,133.811737 7.666286,133.032257 
z"/>
<path fill="#F2F1EB" opacity="1.000000" stroke="none" 
	d="
M27.596489,134.527298 
	C28.054764,134.645462 28.333527,134.934875 28.612289,135.224289 
	C28.491184,135.337265 28.272850,135.556656 28.263107,135.547745 
	C27.968428,135.278519 27.694309,134.986771 27.596489,134.527298 
z"/>
<path fill="#F2F1EB" opacity="1.000000" stroke="none" 
	d="
M31.994884,135.153290 
	C32.237530,135.126572 32.460506,135.282593 32.683487,135.438614 
	C32.584290,135.542007 32.485096,135.645386 32.171604,135.725983 
	C31.957304,135.703201 31.975214,135.336044 31.994884,135.153290 
z"/>
<path fill="#FDFDFC" opacity="1.000000" stroke="none" 
	d="
M34.800453,10.924074 
	C35.649555,10.549173 36.498653,10.174273 37.740494,10.001461 
	C38.764755,10.206544 39.396278,10.209535 40.027802,10.212526 
	C40.458534,10.158741 40.889271,10.104956 41.915756,10.004650 
	C43.017708,9.765069 43.523903,9.572007 44.030098,9.378945 
	C48.371105,9.347800 52.712112,9.316655 57.709389,9.494713 
	C58.937263,9.231763 59.508869,8.759611 60.080471,8.287457 
	C60.456474,8.273779 60.832481,8.260102 61.682793,8.449867 
	C62.752777,8.804884 63.348454,8.956457 63.944134,9.108030 
	C63.944134,9.108030 64.003021,9.511890 64.038483,10.021318 
	C64.735825,10.643853 65.397697,10.756962 66.059578,10.870070 
	C66.059578,10.870070 66.533676,10.919964 66.805199,11.363311 
	C69.313667,13.061734 71.280159,17.496395 74.057335,12.400442 
	C74.286125,12.506391 74.514923,12.612338 75.186203,13.200996 
	C75.765289,14.467409 75.901909,15.251113 76.021851,16.019882 
	C76.005165,16.004950 75.972946,15.973879 75.909676,16.289562 
	C76.237282,16.769598 76.628159,16.933949 77.042862,17.436001 
	C79.055359,19.846140 81.044037,21.918579 83.160606,24.286055 
	C84.183372,25.063040 85.078247,25.544991 85.975632,26.276581 
	C85.978134,26.526217 85.993416,27.025284 85.995132,27.264999 
	C85.996857,27.504713 85.995331,27.984152 86.176620,28.260357 
	C87.842522,31.632870 89.423332,34.687809 90.778542,37.839760 
	C91.710457,40.007210 92.565155,41.564167 94.815598,39.092533 
	C94.978912,39.801178 95.142235,40.509819 94.990021,41.592545 
	C93.947113,42.383995 93.219749,42.801373 92.492378,43.218750 
	C93.621010,43.491863 94.749634,43.764977 95.878265,44.038086 
	C95.675911,49.451775 95.473564,54.865463 94.894554,60.752106 
	C94.353951,61.548870 94.190018,61.872677 94.026085,62.196487 
	C93.367416,62.601604 92.708748,63.006729 91.817368,64.007309 
	C90.964844,66.384239 90.345032,68.165703 89.479225,70.168732 
	C88.474281,72.253487 87.715332,74.116684 86.977898,75.990707 
	C86.999413,76.001534 86.976952,75.958954 86.607437,75.925354 
	C85.809723,76.926117 85.381531,77.960480 84.978065,78.998123 
	C85.002792,79.001404 84.981964,78.956085 84.642761,78.862473 
	C84.187683,79.168549 84.071815,79.568230 83.976120,79.985161 
	C83.996292,80.002411 83.977242,79.953255 83.648109,79.880524 
	C83.196976,80.200127 83.074966,80.592445 82.976746,80.984116 
	C83.000534,80.983459 82.969994,80.944176 82.626656,80.915878 
	C81.464058,81.934013 80.644791,82.980461 79.460297,84.022568 
	C75.172905,86.216087 71.250748,88.413956 67.108269,90.735291 
	C67.925911,91.734497 68.527122,92.469223 69.128334,93.203934 
	C65.710930,94.287628 62.293522,95.371323 58.458054,96.103111 
	C57.802811,94.950874 57.565636,94.150543 56.937080,92.029526 
	C56.415359,94.215919 56.217461,95.045250 56.019562,95.874588 
	C55.845135,95.889984 55.670712,95.905388 54.868629,95.972824 
	C51.824913,96.054688 49.408859,96.084541 46.992802,96.114395 
	C46.831219,96.052254 46.669640,95.990105 46.253532,95.574188 
	C45.528679,94.452797 45.058353,93.685173 44.588032,92.917557 
	C44.313583,93.047935 44.039131,93.178322 43.764683,93.308701 
	C43.839806,94.399986 43.914928,95.491264 43.990051,96.582550 
	C42.731674,96.315376 41.473297,96.048195 40.292023,95.422470 
	C40.649296,94.952354 40.929466,94.840797 41.209641,94.729248 
	C41.064018,94.571365 40.811405,94.262207 40.788765,94.278221 
	C40.427826,94.533501 40.096294,94.830368 39.758057,95.117744 
	C39.071407,95.116669 38.384758,95.115593 37.344177,94.685623 
	C35.994221,93.171371 34.998192,92.086006 33.741348,90.892258 
	C32.980015,90.524223 32.479496,90.264572 31.664337,89.967422 
	C29.196363,88.619774 27.043032,87.309631 24.678915,85.999596 
	C24.468132,85.999710 24.044283,85.999695 23.999847,85.686516 
	C22.995312,84.296806 22.035210,83.220268 20.938007,81.866364 
	C20.203806,81.041412 19.606705,80.493828 18.757725,79.751999 
	C18.337704,79.686966 18.169563,79.816177 17.999592,79.973984 
	C17.997759,80.002594 18.052847,79.986702 18.186146,79.648849 
	C17.579269,78.366959 16.839090,77.422928 16.066147,76.179329 
	C15.346155,74.922516 14.658929,73.965263 13.971701,73.008018 
	C13.954734,72.686523 13.848948,72.397545 13.399920,71.689774 
	C12.522686,70.115944 11.899880,68.993408 11.277073,67.870872 
	C10.511883,67.189964 9.746693,66.509064 8.558860,65.809509 
	C8.136217,65.790855 8.150523,65.638733 8.150523,65.638733 
	C7.657948,64.350456 7.165373,63.062176 7.016814,61.402115 
	C8.066872,60.442570 8.772913,59.854816 9.478954,59.267059 
	C8.361487,59.164143 7.244021,59.061222 6.126554,58.958305 
	C6.075411,54.260838 6.024268,49.563374 6.431511,44.438347 
	C8.856533,43.871964 11.284790,44.052895 8.998549,40.725266 
	C8.999314,40.482857 8.999932,39.998039 9.220037,39.890808 
	C9.719511,39.588211 9.906108,39.326660 10.258694,38.760227 
	C12.982528,33.692760 15.447599,28.863983 18.264931,23.992382 
	C20.455532,21.652452 22.293875,19.355349 24.080051,16.715677 
	C24.008097,15.911504 23.988304,15.449897 23.968510,14.988291 
	C24.124758,14.881698 24.281004,14.775105 24.768326,14.857918 
	C28.654827,16.411427 30.853233,14.273055 33.208107,11.896141 
	C33.881023,11.510715 34.340740,11.217395 34.800453,10.924074 
M17.333166,69.324509 
	C17.190140,70.073891 17.047113,70.823265 16.904089,71.572647 
	C17.245941,71.124718 17.587793,70.676796 18.650850,69.890709 
	C29.851528,63.234074 48.384312,70.139931 52.487057,87.790955 
	C57.996262,83.270821 63.344524,78.806320 68.775314,74.444572 
	C77.264465,67.626480 79.193092,61.821873 73.844490,52.301296 
	C70.705635,46.714104 71.366478,43.504948 76.226173,40.277397 
	C76.329483,40.208782 76.143669,39.704845 76.048332,39.141743 
	C62.201809,42.013313 54.113010,29.873104 41.777321,26.629665 
	C43.693573,25.021589 44.922222,23.990536 46.081661,23.017563 
	C61.350525,33.504055 62.590862,33.518562 72.244385,22.934885 
	C62.996284,26.402044 58.321518,19.071838 52.004524,15.379177 
	C45.468845,20.766748 39.052616,26.047478 32.653275,31.348593 
	C32.192410,31.730362 31.854769,32.260883 31.184141,33.044308 
	C33.611053,34.001358 35.683487,34.818623 38.466213,35.915989 
	C34.996292,38.924538 31.938559,41.575706 28.761148,44.330639 
	C34.241219,46.884544 39.241566,49.214886 44.749180,51.781628 
	C42.539043,53.819157 41.126579,55.121311 39.452175,56.664948 
	C57.374695,58.192852 65.163460,66.056824 60.654549,77.564110 
	C49.685951,58.079884 27.941849,56.067528 17.333166,69.324509 
M93.468063,54.237663 
	C93.951675,53.088997 94.435287,51.940334 94.918907,50.791668 
	C94.403694,50.700718 93.888489,50.609764 93.373283,50.518814 
	C93.275810,51.576702 93.178345,52.634590 93.468063,54.237663 
M9.706052,64.562897 
	C9.989184,64.292770 10.272317,64.022652 10.555450,63.752529 
	C10.443465,63.635342 10.240271,63.410118 10.232651,63.416550 
	C9.934033,63.668659 9.653221,63.941860 9.706052,64.562897 
M39.427231,92.529900 
	C39.184834,92.469795 38.942436,92.409691 38.700039,92.349586 
	C38.856548,92.499878 39.013058,92.650169 39.427231,92.529900 
M65.767006,91.813332 
	C65.591896,91.872047 65.416794,91.930763 65.241684,91.989487 
	C65.417809,92.046349 65.593933,92.103210 65.767006,91.813332 
M61.481213,10.468724 
	C61.481213,10.468724 61.506786,10.435372 61.481213,10.468724 
M62.402306,93.487854 
	C62.402306,93.487854 62.522331,93.413498 62.402306,93.487854 
z"/>
<path fill="#F1F0EA" opacity="1.000000" stroke="none" 
	d="
M69.484177,93.162712 
	C68.527122,92.469223 67.925911,91.734497 67.108269,90.735291 
	C71.250748,88.413956 75.172905,86.216087 79.736877,84.050781 
	C80.562393,84.060356 80.746086,84.037376 80.929771,84.014404 
	C79.429916,89.725075 73.999092,90.648972 69.484177,93.162712 
z"/>
<path fill="#ECEBE3" opacity="1.000000" stroke="none" 
	d="
M85.993416,27.025284 
	C85.993416,27.025284 85.978134,26.526217 85.984413,26.267803 
	C85.990692,26.009388 86.001526,25.998394 86.412445,25.991365 
	C87.371742,25.947359 87.920113,25.910381 88.468483,25.873402 
	C90.562416,30.038658 92.656349,34.203911 94.782944,38.730850 
	C92.565155,41.564167 91.710457,40.007210 90.778542,37.839760 
	C89.423332,34.687809 87.842522,31.632870 86.342087,28.175962 
	C86.215309,27.552004 86.104362,27.288645 85.993416,27.025284 
z"/>
<path fill="#B3AE90" opacity="1.000000" stroke="none" 
	d="
M17.912672,24.035204 
	C15.447599,28.863983 12.982528,33.692760 9.913507,38.691002 
	C8.842024,38.818272 8.374490,38.776085 7.906956,38.733894 
	C9.423840,35.170620 10.940722,31.607347 13.022152,27.907303 
	C13.718335,27.162745 13.849972,26.554958 13.981607,25.947172 
	C13.981607,25.947172 14.000607,26.000601 14.257242,26.010336 
	C14.673292,25.693830 14.832707,25.367592 14.992122,25.041351 
	C14.992122,25.041351 15.050528,24.576767 15.336988,24.311954 
	C15.985320,24.039955 16.347191,24.032768 17.009876,24.039125 
	C17.511351,24.046848 17.712011,24.041027 17.912672,24.035204 
z"/>
<path fill="#F2F1EB" opacity="1.000000" stroke="none" 
	d="
M83.032722,23.991018 
	C81.044037,21.918579 79.055359,19.846140 77.077301,17.139818 
	C77.064697,16.308701 77.041458,16.111465 77.047768,15.572886 
	C77.124092,15.007974 77.170868,14.784402 77.217636,14.560830 
	C79.818100,16.815445 82.418564,19.070059 84.881485,21.761999 
	C84.173546,22.796555 83.603134,23.393785 83.032722,23.991018 
z"/>
<path fill="#EBE9E1" opacity="1.000000" stroke="none" 
	d="
M24.889698,85.999481 
	C27.043032,87.309631 29.196363,88.619774 31.668072,90.332878 
	C31.996796,91.466698 32.007145,92.197556 32.017494,92.928413 
	C29.253826,91.324371 26.490160,89.720329 23.704773,87.719986 
	C23.683054,87.323692 23.992622,87.009819 24.210421,86.910629 
	C24.697281,86.606270 24.851109,86.335625 24.889698,85.999481 
z"/>
<path fill="#9D9770" opacity="1.000000" stroke="none" 
	d="
M16.709061,24.025581 
	C16.347191,24.032768 15.985320,24.039955 15.354633,24.078499 
	C17.818663,21.095978 20.551510,18.082098 23.626434,15.028255 
	C23.988304,15.449897 24.008097,15.911504 23.765699,16.838633 
	C21.238693,19.544630 18.973877,21.785107 16.709061,24.025581 
z"/>
<path fill="#9D9770" opacity="1.000000" stroke="none" 
	d="
M47.088181,96.483536 
	C49.408859,96.084541 51.824913,96.054688 54.625092,96.071213 
	C52.693916,99.484444 49.960117,98.396187 47.088181,96.483536 
z"/>
<path fill="#E5E3D9" opacity="1.000000" stroke="none" 
	d="
M32.994904,11.988247 
	C30.853233,14.273055 28.654827,16.411427 25.009819,14.709002 
	C26.223846,13.545135 27.527456,12.719584 29.575325,11.925371 
	C30.908178,11.966009 31.496769,11.975310 32.312752,11.983886 
	C32.540142,11.983160 32.994904,11.988247 32.994904,11.988247 
z"/>
<path fill="#E5E3D9" opacity="1.000000" stroke="none" 
	d="
M73.825562,12.193094 
	C71.280159,17.496395 69.313667,13.061734 67.017860,11.470950 
	C67.405617,11.118711 67.852242,11.102179 68.725449,11.311991 
	C69.433830,11.354444 69.715607,11.170550 69.997391,10.986658 
	C71.196190,11.319688 72.394981,11.652718 73.825562,12.193094 
z"/>
<path fill="#EBE9E1" opacity="1.000000" stroke="none" 
	d="
M21.075109,82.143738 
	C22.035210,83.220268 22.995312,84.296806 23.977852,85.938606 
	C23.997734,86.672516 23.995178,86.841164 23.992622,87.009819 
	C23.992622,87.009819 23.683054,87.323692 23.496635,87.450180 
	C22.251829,86.140205 21.193443,84.703758 20.085392,82.908783 
	C20.035728,82.550255 20.012043,82.524338 20.311119,82.522224 
	C20.765165,82.394653 20.920137,82.269196 21.075109,82.143738 
z"/>
<path fill="#A6A17D" opacity="1.000000" stroke="none" 
	d="
M13.732166,73.201660 
	C14.658929,73.965263 15.346155,74.922516 16.040436,76.572334 
	C16.025677,77.525299 16.003864,77.785698 15.725999,77.997116 
	C15.297628,77.970779 15.125313,77.993423 14.952996,78.016075 
	C14.952996,78.016075 15.000123,77.996292 14.970623,77.747108 
	C14.629760,77.332550 14.318396,77.167183 14.007031,77.001808 
	C13.835564,75.799644 13.664097,74.597473 13.732166,73.201660 
z"/>
<path fill="#EBE9E1" opacity="1.000000" stroke="none" 
	d="
M34.002167,91.000633 
	C34.998192,92.086006 35.994221,93.171371 37.006420,94.582504 
	C35.759117,94.498619 34.495644,94.088959 33.280983,93.235031 
	C33.553921,92.194054 33.778046,91.597343 34.002167,91.000633 
z"/>
<path fill="#9D9770" opacity="1.000000" stroke="none" 
	d="
M11.192631,67.894547 
	C11.899880,68.993408 12.522686,70.115944 13.203756,71.563095 
	C11.968331,71.325157 8.787317,73.713326 10.089452,69.215408 
	C10.714690,68.602905 10.889014,68.342094 10.960176,68.012329 
	C10.960176,68.012329 11.108187,67.918221 11.192631,67.894547 
z"/>
<path fill="#A6A17D" opacity="1.000000" stroke="none" 
	d="
M92.090851,64.815384 
	C96.544067,65.572289 94.770905,67.258125 92.350922,68.619888 
	C92.022758,67.107361 92.056801,65.961372 92.090851,64.815384 
z"/>
<path fill="#F2F1EB" opacity="1.000000" stroke="none" 
	d="
M6.076337,59.239998 
	C7.244021,59.061222 8.361487,59.164143 9.478954,59.267059 
	C8.772913,59.854816 8.066872,60.442570 6.987685,61.043793 
	C6.418399,60.545403 6.222260,60.033546 6.076337,59.239998 
z"/>
<path fill="#EBE9E1" opacity="1.000000" stroke="none" 
	d="
M44.213753,96.712601 
	C43.914928,95.491264 43.839806,94.399986 43.764683,93.308701 
	C44.039131,93.178322 44.313583,93.047935 44.588032,92.917557 
	C45.058353,93.685173 45.528679,94.452797 45.994003,95.565346 
	C45.471825,96.221069 44.954639,96.531860 44.213753,96.712601 
z"/>
<path fill="#A6A17D" opacity="1.000000" stroke="none" 
	d="
M44.033310,9.015577 
	C43.523903,9.572007 43.017708,9.765069 42.229156,9.914205 
	C42.283321,8.716670 42.619839,7.563062 42.956352,6.409453 
	C43.316406,7.157039 43.676460,7.904624 44.033310,9.015577 
z"/>
<path fill="#EBE9E1" opacity="1.000000" stroke="none" 
	d="
M92.009171,69.977112 
	C91.271873,71.916519 90.534584,73.855934 89.298126,75.798996 
	C88.646049,75.656853 88.493126,75.511055 88.520241,75.095734 
	C89.490601,73.229179 90.280922,71.632141 91.304512,70.000992 
	C91.537781,69.966873 92.009171,69.977112 92.009171,69.977112 
z"/>
<path fill="#A6A17D" opacity="1.000000" stroke="none" 
	d="
M60.030987,7.939021 
	C59.508869,8.759611 58.937263,9.231763 58.172890,9.515848 
	C57.984894,8.295410 57.989666,7.263040 57.994442,6.230669 
	C58.656796,6.683974 59.319149,7.137279 60.030987,7.939021 
z"/>
<path fill="#F2F1EB" opacity="1.000000" stroke="none" 
	d="
M95.927338,43.757259 
	C94.749634,43.764977 93.621010,43.491863 92.492378,43.218750 
	C93.219749,42.801373 93.947113,42.383995 95.036911,41.953465 
	C95.591690,42.452351 95.784042,42.964394 95.927338,43.757259 
z"/>
<path fill="#F2F1EB" opacity="1.000000" stroke="none" 
	d="
M8.997782,40.967674 
	C11.284790,44.052895 8.856533,43.871964 6.523436,44.016045 
	C6.119498,43.566525 6.082020,43.111740 6.425884,42.322372 
	C7.537411,41.647747 8.267596,41.307713 8.997782,40.967674 
z"/>
<path fill="#9D9770" opacity="1.000000" stroke="none" 
	d="
M92.012329,69.761017 
	C92.009171,69.977112 91.537781,69.966873 90.967865,69.980255 
	C90.173714,69.978149 89.949471,69.962662 89.725220,69.947166 
	C90.345032,68.165703 90.964844,66.384239 91.808067,64.339371 
	C92.031479,64.075974 92.059021,64.447708 92.074936,64.631546 
	C92.056801,65.961372 92.022758,67.107361 92.010025,68.683151 
	C92.031326,69.112961 92.015480,69.544914 92.012329,69.761017 
z"/>
<path fill="#F1F0EA" opacity="1.000000" stroke="none" 
	d="
M56.093010,96.134140 
	C56.217461,95.045250 56.415359,94.215919 56.937080,92.029526 
	C57.565636,94.150543 57.802811,94.950874 58.042450,96.142792 
	C57.418758,96.487480 56.792606,96.440582 56.093010,96.134140 
z"/>
<path fill="#ECEBE3" opacity="1.000000" stroke="none" 
	d="
M83.160606,24.286053 
	C83.603134,23.393785 84.173546,22.796555 85.037186,22.073311 
	C85.546852,22.048565 85.719841,22.199635 85.914551,22.980448 
	C85.987000,24.373056 85.994263,25.185724 86.001526,25.998394 
	C86.001526,25.998394 85.990692,26.009388 85.981911,26.018166 
	C85.078247,25.544991 84.183372,25.063040 83.160606,24.286053 
z"/>
<path fill="#A6A17D" opacity="1.000000" stroke="none" 
	d="
M40.000893,9.890074 
	C39.396278,10.209535 38.764755,10.206544 38.082016,9.912485 
	C38.155373,8.943882 38.279945,8.266345 38.595249,6.551445 
	C39.354790,8.213039 39.664387,8.890330 40.000893,9.890074 
z"/>
<path fill="#9D9770" opacity="1.000000" stroke="none" 
	d="
M33.208107,11.896141 
	C32.994904,11.988247 32.540142,11.983160 32.279846,11.763865 
	C32.019550,11.544570 31.968771,11.102538 31.968771,11.102538 
	C32.729744,11.021201 33.490719,10.939864 34.526073,10.891301 
	C34.340740,11.217395 33.881023,11.510715 33.208107,11.896141 
z"/>
<path fill="#E5E3D9" opacity="1.000000" stroke="none" 
	d="
M20.012043,82.524338 
	C20.012043,82.524338 20.035728,82.550255 20.048698,82.531937 
	C19.099630,82.390045 18.137596,82.266464 17.075287,81.431129 
	C16.998783,80.446297 17.022556,80.173218 17.295366,79.951920 
	C17.713886,79.998024 17.883366,79.992363 18.052847,79.986702 
	C18.052847,79.986702 17.997759,80.002594 18.046858,80.251846 
	C18.375360,80.745049 18.654764,80.988991 19.055527,81.491135 
	C19.455269,82.007668 19.733656,82.265999 20.012043,82.524338 
z"/>
<path fill="#A6A17D" opacity="1.000000" stroke="none" 
	d="
M81.105118,84.044937 
	C80.746086,84.037376 80.562393,84.060356 80.102112,84.055122 
	C80.644791,82.980461 81.464058,81.934013 82.675201,81.179703 
	C83.050270,81.649719 83.033470,81.827591 82.911888,82.266090 
	C82.883324,82.697762 82.959541,82.868813 83.035767,83.039864 
	C83.035767,83.039864 83.007004,83.007935 82.684357,83.010910 
	C82.119934,83.369133 81.878159,83.724380 81.636383,84.079628 
	C81.636383,84.079628 81.280457,84.075462 81.105118,84.044937 
z"/>
<path fill="#FDFCFB" opacity="1.000000" stroke="none" 
	d="
M8.998548,40.725266 
	C8.267596,41.307713 7.537411,41.647747 6.483275,41.983765 
	C6.370191,41.485107 6.581058,40.990463 7.257395,40.247185 
	C8.148555,39.998379 8.574244,39.998211 8.999932,39.998039 
	C8.999932,39.998039 8.999314,40.482857 8.998548,40.725266 
z"/>
<path fill="#F2F1EB" opacity="1.000000" stroke="none" 
	d="
M86.412445,25.991365 
	C85.994263,25.185724 85.987000,24.373056 85.957703,23.150074 
	C86.683907,23.577263 87.432159,24.414762 88.324448,25.562832 
	C87.920113,25.910381 87.371742,25.947359 86.412445,25.991365 
z"/>
<path fill="#FDFCFB" opacity="1.000000" stroke="none" 
	d="
M33.741348,90.892258 
	C33.778046,91.597343 33.553921,92.194054 33.061897,92.979057 
	C32.793995,93.167351 32.389397,93.101044 32.203445,93.014725 
	C32.007145,92.197556 31.996796,91.466698 31.982710,90.370377 
	C32.479496,90.264572 32.980015,90.524223 33.741348,90.892258 
z"/>
<path fill="#A6A17D" opacity="1.000000" stroke="none" 
	d="
M94.036560,62.456512 
	C94.190018,61.872677 94.353951,61.548870 94.775101,61.117310 
	C95.167389,61.656982 95.302452,62.304405 95.437523,62.951828 
	C94.974030,62.873398 94.510529,62.794968 94.036560,62.456512 
z"/>
<path fill="#FDFCFB" opacity="1.000000" stroke="none" 
	d="
M65.911407,10.607880 
	C65.397697,10.756962 64.735825,10.643853 64.050903,10.225005 
	C64.606316,10.061406 65.184776,10.203547 65.911407,10.607880 
z"/>
<path fill="#E5E3D9" opacity="1.000000" stroke="none" 
	d="
M83.016670,82.005470 
	C83.033470,81.827591 83.050270,81.649719 83.018539,81.208008 
	C82.969994,80.944176 83.000534,80.983459 83.255661,80.946976 
	C83.666267,80.591408 83.821754,80.272331 83.977249,79.953255 
	C83.977242,79.953255 83.996292,80.002411 84.230988,80.018402 
	C84.633263,79.998756 84.800850,79.963127 85.006866,80.328125 
	C85.071999,80.995735 85.098701,81.262718 85.125397,81.529701 
	C84.909119,81.968987 84.692841,82.408272 84.142662,82.725128 
	C83.544731,82.403625 83.280701,82.204544 83.016670,82.005470 
z"/>
<path fill="#F2F1EB" opacity="1.000000" stroke="none" 
	d="
M17.046329,79.900146 
	C17.022556,80.173218 16.998783,80.446297 16.947571,81.131134 
	C16.160601,80.591568 15.401073,79.640251 14.797270,78.352509 
	C15.125313,77.993423 15.297628,77.970779 15.819029,78.250237 
	C16.460850,79.001610 16.753590,79.450874 17.046329,79.900146 
z"/>
<path fill="#EBE9E1" opacity="1.000000" stroke="none" 
	d="
M85.402222,81.340416 
	C85.098701,81.262718 85.071999,80.995735 85.034927,80.085693 
	C85.024551,79.442642 84.981964,78.956085 84.981964,78.956085 
	C84.981964,78.956085 85.002792,79.001404 85.252396,78.942703 
	C85.932449,78.530792 86.362892,78.177589 86.992889,78.009979 
	C87.337524,78.304932 87.482605,78.414291 87.627678,78.523651 
	C86.978142,79.399483 86.328598,80.275307 85.402222,81.340416 
z"/>
<path fill="#EBE9E1" opacity="1.000000" stroke="none" 
	d="
M89.029274,76.020386 
	C88.862175,76.884308 88.464775,77.530510 87.847527,78.350174 
	C87.482605,78.414291 87.337524,78.304932 87.070648,77.702469 
	C86.958214,76.792564 86.967583,76.375763 86.976952,75.958954 
	C86.976952,75.958954 86.999413,76.001534 87.248367,76.016861 
	C87.778282,75.809875 88.059242,75.587563 88.340202,75.365250 
	C88.493126,75.511055 88.646049,75.656853 89.029274,76.020386 
z"/>
<path fill="#9D9770" opacity="1.000000" stroke="none" 
	d="
M76.038528,16.034817 
	C75.901909,15.251113 75.765289,14.467409 75.546265,13.316740 
	C75.463844,12.949776 75.838562,13.254690 75.697662,13.755882 
	C75.717361,14.849654 75.877945,15.442235 76.038528,16.034817 
z"/>
<path fill="#A6A17D" opacity="1.000000" stroke="none" 
	d="
M63.943604,8.819069 
	C63.348454,8.956457 62.752777,8.804884 61.964233,8.411482 
	C62.495270,8.289804 63.219170,8.409955 63.943604,8.819069 
z"/>
<path fill="#F2F1EB" opacity="1.000000" stroke="none" 
	d="
M9.220037,39.890808 
	C8.574244,39.998211 8.148555,39.998379 7.403788,40.005646 
	C7.211180,39.691830 7.337651,39.370926 7.685538,38.891960 
	C8.374490,38.776085 8.842024,38.818272 9.654745,38.929688 
	C9.906108,39.326660 9.719511,39.588211 9.220037,39.890808 
z"/>
<path fill="#9D9770" opacity="1.000000" stroke="none" 
	d="
M69.977707,10.730947 
	C69.715607,11.170550 69.433830,11.354444 69.058838,11.347790 
	C69.154793,10.708262 69.343941,10.259280 69.533096,9.810297 
	C69.674736,10.031944 69.816383,10.253592 69.977707,10.730947 
z"/>
<path fill="#FDFDFC" opacity="1.000000" stroke="none" 
	d="
M31.610489,11.058901 
	C31.968771,11.102538 32.019550,11.544570 32.052456,11.764591 
	C31.496769,11.975310 30.908178,11.966009 29.876801,11.956335 
	C30.040079,11.642396 30.646143,11.328830 31.610489,11.058901 
z"/>
<path fill="#FDFDFC" opacity="1.000000" stroke="none" 
	d="
M76.021851,16.019882 
	C75.877945,15.442235 75.717361,14.849654 75.776260,13.849187 
	C76.285538,13.672131 76.575333,13.902961 77.041382,14.347311 
	C77.170868,14.784402 77.124092,15.007974 76.783829,15.542126 
	C76.317886,15.893098 76.145416,15.933489 75.972946,15.973879 
	C75.972946,15.973879 76.005165,16.004950 76.021851,16.019882 
z"/>
<path fill="#FCFCFA" opacity="1.000000" stroke="none" 
	d="
M13.679487,26.054218 
	C13.849972,26.554958 13.718335,27.162745 13.281132,27.887939 
	C13.109499,27.390654 13.243433,26.775957 13.679487,26.054218 
z"/>
<path fill="#9D9770" opacity="1.000000" stroke="none" 
	d="
M66.537796,8.563719 
	C66.475723,8.603547 66.599869,8.523890 66.537796,8.563719 
z"/>
<path fill="#A6A17D" opacity="1.000000" stroke="none" 
	d="
M35.542629,8.577000 
	C35.475307,8.622832 35.609951,8.531167 35.542629,8.577000 
z"/>
<path fill="#EBE9E1" opacity="1.000000" stroke="none" 
	d="
M82.911888,82.266090 
	C83.280701,82.204544 83.544731,82.403625 83.913666,82.832108 
	C83.852707,83.151161 83.686852,83.240807 83.278381,83.185165 
	C82.959541,82.868813 82.883324,82.697762 82.911888,82.266090 
z"/>
<path fill="#FCFCFA" opacity="1.000000" stroke="none" 
	d="
M14.718832,25.070469 
	C14.832707,25.367592 14.673292,25.693830 14.229277,26.005659 
	C14.111631,25.694027 14.278586,25.396805 14.718832,25.070469 
z"/>
<path fill="#EBE9E1" opacity="1.000000" stroke="none" 
	d="
M82.005646,84.148499 
	C81.878159,83.724380 82.119934,83.369133 82.696045,83.024109 
	C82.811890,83.428680 82.593399,83.823021 82.005646,84.148499 
z"/>
<path fill="#F2F1EB" opacity="1.000000" stroke="none" 
	d="
M14.035933,77.315231 
	C14.318396,77.167183 14.629760,77.332550 14.967017,77.772408 
	C14.683552,77.907478 14.374193,77.768074 14.035933,77.315231 
z"/>
<path fill="#A6A17D" opacity="1.000000" stroke="none" 
	d="
M10.739155,68.108215 
	C10.889014,68.342094 10.714690,68.602905 10.219559,68.896156 
	C10.072992,68.667351 10.245067,68.402863 10.739155,68.108215 
z"/>
<path fill="#9D9770" opacity="1.000000" stroke="none" 
	d="
M8.212470,65.786171 
	C8.145993,65.986633 8.003263,66.191772 7.860533,66.396919 
	C7.860409,66.233040 7.860286,66.069160 8.005343,65.772003 
	C8.150523,65.638733 8.136217,65.790855 8.212470,65.786171 
z"/>
<path fill="#FCFCFA" opacity="1.000000" stroke="none" 
	d="
M97.901489,126.421738 
	C66.466087,126.880836 35.060688,126.880836 3.155161,126.880836 
	C3.155161,120.358040 3.155161,114.244446 3.202816,107.681900 
	C34.523399,107.232956 65.796326,107.232956 97.931496,107.232956 
	C97.931496,113.488281 97.931496,119.725464 97.901489,126.421738 
M63.533035,110.117050 
	C61.032177,110.766510 58.531322,111.415970 55.954334,112.085205 
	C50.553913,107.873779 43.628021,111.066628 37.216553,110.136978 
	C36.585182,112.198509 36.119354,113.719528 35.812981,114.719894 
	C34.723457,113.290565 33.527172,111.721191 32.330891,110.151810 
	C30.877424,111.704430 29.423956,113.257042 28.120420,114.649506 
	C27.754839,113.540100 27.239368,111.975830 26.588308,110.000099 
	C23.278206,110.000099 19.922037,109.675980 16.676586,110.134872 
	C15.018248,110.369362 13.558346,112.007263 12.008751,113.010841 
	C13.131341,114.412300 14.065168,116.049736 15.433372,117.144135 
	C16.631613,118.102600 18.317764,118.451080 19.788383,119.069023 
	C19.603786,119.557571 19.419189,120.046127 19.234591,120.534676 
	C16.843111,119.987404 14.451631,119.440132 12.109592,118.904175 
	C11.109966,122.488876 12.617305,123.719528 16.070169,123.950043 
	C20.228645,124.227654 24.277878,121.068802 28.583036,123.725586 
	C29.119545,124.056679 30.919922,122.339745 32.169044,121.550056 
	C34.816574,125.130112 37.346172,124.972794 39.419655,121.286400 
	C40.206310,122.071686 41.036324,123.642509 42.017025,123.743011 
	C45.229046,124.072205 48.495869,123.866615 51.794014,123.866615 
	C51.794014,121.710403 51.794014,120.295273 51.794014,118.995461 
	C49.991943,119.637222 48.391800,120.403847 46.715221,120.650085 
	C46.348164,120.703987 45.138035,118.179352 45.281246,118.066452 
	C47.115318,116.620636 49.125034,115.397629 51.090195,114.118095 
	C52.098026,116.252609 53.208008,118.347404 54.061317,120.542000 
	C54.383911,121.371658 54.113689,122.431801 54.113689,123.503922 
	C55.841450,123.503922 57.204632,123.503922 58.144600,123.503922 
	C58.806007,120.320641 59.378532,117.565109 59.951061,114.809586 
	C60.409973,114.864151 60.868885,114.918716 61.327797,114.973282 
	C61.327797,117.870369 61.327797,120.767456 61.327797,124.236534 
	C67.520645,123.755692 73.103218,123.322227 79.843864,122.798851 
	C82.107216,124.639694 88.751122,123.793365 91.442703,120.079391 
	C87.550148,119.474060 82.832855,120.508362 81.923843,114.542336 
	C81.683243,112.963219 80.217972,110.577293 79.014320,110.377998 
	C77.333008,110.099625 75.369377,111.526306 73.910782,112.078056 
	C70.723289,111.420876 67.561440,110.768974 63.533035,110.117050 
z"/>
<path fill="#989269" opacity="1.000000" stroke="none" 
	d="
M17.837381,69.041733 
	C27.941849,56.067528 49.685951,58.079884 60.654549,77.564110 
	C65.163460,66.056824 57.374695,58.192852 39.452175,56.664948 
	C41.126579,55.121311 42.539043,53.819157 44.749180,51.781628 
	C39.241566,49.214886 34.241219,46.884544 28.761148,44.330639 
	C31.938559,41.575706 34.996292,38.924538 38.466213,35.915989 
	C35.683487,34.818623 33.611053,34.001358 31.184141,33.044308 
	C31.854769,32.260883 32.192410,31.730362 32.653275,31.348593 
	C39.052616,26.047478 45.468845,20.766748 52.004524,15.379177 
	C58.321518,19.071838 62.996284,26.402044 72.244385,22.934885 
	C62.590862,33.518562 61.350525,33.504055 46.081661,23.017563 
	C44.922222,23.990536 43.693573,25.021589 41.777321,26.629665 
	C54.113010,29.873104 62.201809,42.013313 76.048332,39.141743 
	C76.143669,39.704845 76.329483,40.208782 76.226173,40.277397 
	C71.366478,43.504948 70.705635,46.714104 73.844490,52.301296 
	C79.193092,61.821873 77.264465,67.626480 68.775314,74.444572 
	C63.344524,78.806320 57.996262,83.270821 52.487057,87.790955 
	C48.384312,70.139931 29.851528,63.234074 18.301167,69.759659 
	C17.913448,69.432991 17.875416,69.237358 17.837381,69.041733 
M62.032299,52.618629 
	C62.217602,52.904610 62.473755,53.095516 62.938507,53.696747 
	C63.396633,53.904434 63.854755,54.112118 64.312881,54.319801 
	C64.040604,53.711510 63.768330,53.103218 63.245052,52.124310 
	C63.072113,51.873856 62.856522,51.668091 62.396805,50.978630 
	C62.001945,50.588547 61.607090,50.198463 60.961796,49.185570 
	C60.288284,48.831963 59.614773,48.478355 58.941261,48.124748 
	C58.637188,48.491653 58.333115,48.858555 58.029037,49.225456 
	C58.827366,49.665508 59.625690,50.105560 60.699791,51.009987 
	C61.079205,51.397263 61.458614,51.784538 62.032299,52.618629 
M45.181087,38.268906 
	C43.380566,37.860546 41.580044,37.452183 39.779522,37.043819 
	C39.679081,37.477505 39.578636,37.911190 39.478195,38.344872 
	C45.637501,41.523087 51.796806,44.701298 57.956112,47.879513 
	C58.229942,47.457188 58.503777,47.034863 58.777607,46.612537 
	C54.464565,43.951157 50.151520,41.289776 45.181087,38.268906 
z"/>
<path fill="#FDFCFB" opacity="1.000000" stroke="none" 
	d="
M17.009876,24.039127 
	C18.973877,21.785107 21.238693,19.544630 23.817863,17.181200 
	C22.293875,19.355349 20.455532,21.652452 18.264931,23.992382 
	C17.712011,24.041027 17.511351,24.046848 17.009876,24.039127 
z"/>
<path fill="#A6A17D" opacity="1.000000" stroke="none" 
	d="
M88.520241,75.095734 
	C88.059242,75.587563 87.778282,75.809875 87.226852,76.006035 
	C87.715332,74.116684 88.474281,72.253487 89.479225,70.168732 
	C89.949471,69.962662 90.173714,69.978149 90.734604,70.014374 
	C90.280922,71.632141 89.490601,73.229179 88.520241,75.095734 
z"/>
<path fill="#F2F1EB" opacity="1.000000" stroke="none" 
	d="
M93.274467,53.965073 
	C93.178345,52.634590 93.275810,51.576702 93.373283,50.518814 
	C93.888489,50.609764 94.403694,50.700718 94.918907,50.791668 
	C94.435287,51.940334 93.951675,53.088997 93.274467,53.965073 
z"/>
<path fill="#A6A17D" opacity="1.000000" stroke="none" 
	d="
M86.607437,75.925354 
	C86.967583,76.375763 86.958214,76.792564 86.871094,77.516876 
	C86.362892,78.177589 85.932449,78.530792 85.227676,78.939423 
	C85.381531,77.960480 85.809723,76.926117 86.607437,75.925354 
z"/>
<path fill="#FDFCFB" opacity="1.000000" stroke="none" 
	d="
M17.585274,69.183121 
	C17.875416,69.237358 17.913448,69.432991 17.940563,69.928741 
	C17.587793,70.676796 17.245941,71.124718 16.904087,71.572647 
	C17.047113,70.823265 17.190140,70.073891 17.585274,69.183121 
z"/>
<path fill="#9D9770" opacity="1.000000" stroke="none" 
	d="
M17.295368,79.951920 
	C16.753590,79.450874 16.460850,79.001610 16.075083,78.299225 
	C16.003864,77.785698 16.025677,77.525299 16.073200,76.871902 
	C16.839090,77.422928 17.579269,78.366959 18.186146,79.648849 
	C17.883366,79.992363 17.713886,79.998024 17.295368,79.951920 
z"/>
<path fill="#FDFCFB" opacity="1.000000" stroke="none" 
	d="
M9.538068,64.387604 
	C9.653221,63.941860 9.934033,63.668659 10.232651,63.416550 
	C10.240271,63.410118 10.443465,63.635342 10.555450,63.752529 
	C10.272317,64.022652 9.989184,64.292770 9.538068,64.387604 
z"/>
<path fill="#A6A17D" opacity="1.000000" stroke="none" 
	d="
M20.311119,82.522224 
	C19.733656,82.265999 19.455269,82.007668 19.075380,81.168762 
	C18.985785,80.374199 18.997694,80.160217 19.009602,79.946243 
	C19.606705,80.493828 20.203806,81.041412 20.938007,81.866364 
	C20.920137,82.269196 20.765165,82.394653 20.311119,82.522224 
z"/>
<path fill="#EBE9E1" opacity="1.000000" stroke="none" 
	d="
M39.795685,95.085861 
	C40.096294,94.830368 40.427826,94.533501 40.788765,94.278221 
	C40.811405,94.262207 41.064018,94.571365 41.209641,94.729248 
	C40.929466,94.840797 40.649296,94.952354 40.084858,95.096085 
	C39.800591,95.128250 39.833313,95.053986 39.795685,95.085861 
z"/>
<path fill="#EBE9E1" opacity="1.000000" stroke="none" 
	d="
M39.298401,92.665184 
	C39.013058,92.650169 38.856548,92.499878 38.700039,92.349586 
	C38.942436,92.409691 39.184834,92.469795 39.298401,92.665184 
z"/>
<path fill="#F1F0EA" opacity="1.000000" stroke="none" 
	d="
M65.768539,91.986702 
	C65.593933,92.103210 65.417809,92.046349 65.241684,91.989487 
	C65.416794,91.930763 65.591896,91.872047 65.768539,91.986702 
z"/>
<path fill="#A6A17D" opacity="1.000000" stroke="none" 
	d="
M61.493999,10.452048 
	C61.506786,10.435372 61.481213,10.468724 61.493999,10.452048 
z"/>
<path fill="#9D9770" opacity="1.000000" stroke="none" 
	d="
M75.909676,16.289562 
	C76.145416,15.933489 76.317886,15.893098 76.754288,15.883467 
	C77.041458,16.111465 77.064697,16.308701 77.053482,16.802120 
	C76.628159,16.933949 76.237282,16.769598 75.909676,16.289562 
z"/>
<path fill="#F1F0EA" opacity="1.000000" stroke="none" 
	d="
M62.462318,93.450676 
	C62.522331,93.413498 62.402306,93.487854 62.462318,93.450676 
z"/>
<path fill="#FDFCFB" opacity="1.000000" stroke="none" 
	d="
M24.210421,86.910629 
	C23.995178,86.841164 23.997734,86.672516 24.022285,86.251785 
	C24.044283,85.999695 24.468132,85.999710 24.678917,85.999596 
	C24.851109,86.335625 24.697281,86.606270 24.210421,86.910629 
z"/>
<path fill="#FDFCFB" opacity="1.000000" stroke="none" 
	d="
M85.995132,27.264999 
	C86.104362,27.288645 86.215309,27.552004 86.160797,27.899757 
	C85.995331,27.984152 85.996857,27.504713 85.995132,27.264999 
z"/>
<path fill="#A6A17D" opacity="1.000000" stroke="none" 
	d="
M83.648117,79.880524 
	C83.821754,80.272331 83.666267,80.591408 83.231873,80.947632 
	C83.074966,80.592445 83.196976,80.200127 83.648117,79.880524 
z"/>
<path fill="#9D9770" opacity="1.000000" stroke="none" 
	d="
M18.757723,79.751999 
	C18.997694,80.160217 18.985785,80.374199 18.954023,80.910561 
	C18.654764,80.988991 18.375360,80.745049 18.048691,80.223244 
	C18.169563,79.816177 18.337704,79.686966 18.757723,79.751999 
z"/>
<path fill="#A6A17D" opacity="1.000000" stroke="none" 
	d="
M84.642761,78.862473 
	C84.981964,78.956085 85.024551,79.442642 84.996490,79.685066 
	C84.800850,79.963127 84.633263,79.998756 84.210815,80.001152 
	C84.071815,79.568230 84.187683,79.168549 84.642761,78.862473 
z"/>
<path fill="#9C966E" opacity="1.000000" stroke="none" 
	d="
M63.966309,110.117065 
	C67.561440,110.768974 70.723289,111.420876 73.910782,112.078056 
	C75.369377,111.526306 77.333008,110.099625 79.014320,110.377998 
	C80.217972,110.577293 81.683243,112.963219 81.923843,114.542336 
	C82.832855,120.508362 87.550148,119.474060 91.442703,120.079391 
	C88.751122,123.793365 82.107216,124.639694 79.843864,122.798851 
	C73.103218,123.322227 67.520645,123.755692 61.327797,124.236534 
	C61.327797,120.767456 61.327797,117.870369 61.327797,114.973282 
	C60.868885,114.918716 60.409973,114.864151 59.951061,114.809586 
	C59.378532,117.565109 58.806007,120.320641 58.144600,123.503922 
	C57.204632,123.503922 55.841450,123.503922 54.113689,123.503922 
	C54.113689,122.431801 54.383911,121.371658 54.061317,120.542000 
	C53.208008,118.347404 52.098026,116.252609 51.090195,114.118095 
	C49.125034,115.397629 47.115318,116.620636 45.281246,118.066452 
	C45.138035,118.179352 46.348164,120.703987 46.715221,120.650085 
	C48.391800,120.403847 49.991943,119.637222 51.794014,118.995461 
	C51.794014,120.295273 51.794014,121.710403 51.794014,123.866615 
	C48.495869,123.866615 45.229046,124.072205 42.017025,123.743011 
	C41.036324,123.642509 40.206310,122.071686 39.419655,121.286400 
	C37.346172,124.972794 34.816574,125.130112 32.169044,121.550056 
	C30.919922,122.339745 29.119545,124.056679 28.583036,123.725586 
	C24.277878,121.068802 20.228645,124.227654 16.070169,123.950043 
	C12.617305,123.719528 11.109966,122.488876 12.109592,118.904175 
	C14.451631,119.440132 16.843111,119.987404 19.234591,120.534676 
	C19.419189,120.046127 19.603786,119.557571 19.788383,119.069023 
	C18.317764,118.451080 16.631613,118.102600 15.433372,117.144135 
	C14.065168,116.049736 13.131341,114.412300 12.008752,113.010841 
	C13.558346,112.007263 15.018248,110.369362 16.676586,110.134872 
	C19.922037,109.675980 23.278206,110.000099 26.588308,110.000099 
	C27.239368,111.975830 27.754839,113.540100 28.120420,114.649506 
	C29.423956,113.257042 30.877424,111.704430 32.330891,110.151810 
	C33.527172,111.721191 34.723457,113.290565 35.812981,114.719894 
	C36.119354,113.719528 36.585182,112.198509 37.216553,110.136978 
	C43.628021,111.066628 50.553913,107.873779 55.954334,112.085205 
	C58.531322,111.415970 61.032177,110.766510 63.966309,110.117065 
M65.256332,118.134575 
	C66.169998,118.874863 67.083672,119.615150 67.997345,120.355438 
	C68.697586,118.890610 69.872414,117.437836 69.910049,115.956177 
	C69.930756,115.140915 68.038445,114.277046 67.008629,113.435097 
	C66.420502,114.747665 65.832382,116.060234 65.256332,118.134575 
z"/>
<path fill="#F2F1EB" opacity="1.000000" stroke="none" 
	d="
M45.509781,38.448647 
	C50.151520,41.289776 54.464565,43.951157 58.777607,46.612537 
	C58.503777,47.034863 58.229942,47.457188 57.956112,47.879513 
	C51.796806,44.701298 45.637501,41.523087 39.478195,38.344872 
	C39.578636,37.911190 39.679081,37.477505 39.779522,37.043819 
	C41.580044,37.452183 43.380566,37.860546 45.509781,38.448647 
z"/>
<path fill="#F2F1EB" opacity="1.000000" stroke="none" 
	d="
M63.496056,52.494923 
	C63.768330,53.103218 64.040604,53.711510 64.312881,54.319801 
	C63.854755,54.112118 63.396633,53.904434 63.047356,53.273521 
	C63.156208,52.850292 63.496056,52.494923 63.496056,52.494923 
z"/>
<path fill="#F2F1EB" opacity="1.000000" stroke="none" 
	d="
M60.424019,50.545609 
	C59.625690,50.105560 58.827366,49.665508 58.029037,49.225456 
	C58.333115,48.858555 58.637188,48.491653 58.941261,48.124748 
	C59.614773,48.478355 60.288284,48.831963 60.883862,49.674759 
	C60.678627,50.291168 60.551323,50.418388 60.424019,50.545609 
z"/>
<path fill="#F2F1EB" opacity="1.000000" stroke="none" 
	d="
M61.009079,49.986164 
	C61.607090,50.198463 62.001945,50.588547 62.296783,51.396790 
	C62.077179,51.933903 61.957603,52.052860 61.838028,52.171814 
	C61.458614,51.784538 61.079205,51.397263 60.561905,50.777798 
	C60.551323,50.418388 60.678627,50.291168 61.009079,49.986164 
z"/>
<path fill="#F2F1EB" opacity="1.000000" stroke="none" 
	d="
M62.397518,51.660980 
	C62.856522,51.668091 63.072113,51.873856 63.370552,52.309616 
	C63.496056,52.494923 63.156208,52.850292 62.978485,53.020821 
	C62.473755,53.095516 62.217602,52.904610 61.935165,52.395222 
	C61.957603,52.052860 62.077179,51.933903 62.397518,51.660980 
z"/>
<path fill="#ECEBE3" opacity="1.000000" stroke="none" 
	d="
M65.250298,117.753693 
	C65.832382,116.060234 66.420502,114.747665 67.008629,113.435097 
	C68.038445,114.277046 69.930756,115.140915 69.910049,115.956177 
	C69.872414,117.437836 68.697586,118.890610 67.997345,120.355438 
	C67.083672,119.615150 66.169998,118.874863 65.250298,117.753693 
z"/>
</svg>